<?xml version='1.0' encoding='utf-8'?>
<svg xmlns="http://www.w3.org/2000/svg" width="916" height="916" viewBox="172 152 916 916" fill="none">
  <g fill="#000000">
    <path d="M 602 178 L 601 179 L 589 179 L 588 180 L 581 180 L 580 181 L 573 181 L 572 182 L 566 182 L 565 183 L 560 183 L 559 184 L 554 184 L 553 185 L 548 185 L 547 186 L 543 186 L 542 187 L 538 187 L 537 188 L 534 188 L 533 189 L 530 189 L 529 190 L 525 190 L 524 191 L 521 191 L 520 192 L 518 192 L 517 193 L 514 193 L 513 194 L 510 194 L 509 195 L 507 195 L 506 196 L 503 196 L 502 197 L 500 197 L 499 198 L 497 198 L 496 199 L 493 199 L 492 200 L 491 200 L 490 201 L 488 201 L 487 202 L 485 202 L 484 203 L 482 203 L 481 204 L 479 204 L 478 205 L 476 205 L 475 206 L 474 206 L 473 207 L 471 207 L 470 208 L 468 208 L 467 209 L 466 209 L 465 210 L 463 210 L 462 211 L 461 211 L 460 212 L 459 212 L 458 213 L 456 213 L 455 214 L 454 214 L 453 215 L 452 215 L 451 216 L 449 216 L 448 217 L 447 217 L 446 218 L 445 218 L 444 219 L 443 219 L 442 220 L 441 220 L 440 221 L 439 221 L 438 222 L 437 222 L 436 223 L 435 223 L 434 224 L 433 224 L 432 225 L 431 225 L 430 226 L 429 226 L 428 227 L 427 227 L 426 228 L 425 228 L 424 229 L 423 229 L 422 230 L 421 230 L 420 231 L 419 231 L 417 233 L 416 233 L 415 234 L 414 234 L 413 235 L 412 235 L 410 237 L 409 237 L 408 238 L 407 238 L 405 240 L 404 240 L 403 241 L 402 241 L 400 243 L 399 243 L 398 244 L 397 244 L 395 246 L 394 246 L 392 248 L 391 248 L 389 250 L 388 250 L 386 252 L 385 252 L 383 254 L 382 254 L 380 256 L 379 256 L 376 259 L 375 259 L 373 261 L 372 261 L 369 264 L 368 264 L 365 267 L 364 267 L 360 271 L 359 271 L 356 274 L 355 274 L 351 278 L 350 278 L 345 283 L 344 283 L 339 288 L 338 288 L 325 301 L 324 301 L 321 304 L 321 305 L 304 322 L 304 323 L 297 330 L 297 331 L 292 336 L 292 337 L 288 341 L 288 342 L 285 345 L 285 346 L 282 349 L 282 350 L 278 354 L 278 355 L 276 357 L 276 358 L 273 361 L 273 362 L 271 364 L 271 365 L 269 367 L 269 368 L 267 370 L 267 371 L 265 373 L 265 374 L 263 376 L 263 377 L 261 379 L 261 380 L 260 381 L 260 382 L 258 384 L 258 385 L 256 387 L 256 388 L 255 389 L 255 390 L 254 391 L 254 392 L 252 394 L 252 395 L 251 396 L 251 397 L 250 398 L 250 399 L 248 401 L 248 402 L 247 403 L 247 404 L 246 405 L 246 406 L 245 407 L 245 408 L 244 409 L 244 410 L 243 411 L 243 412 L 242 413 L 242 414 L 241 415 L 241 416 L 240 417 L 240 418 L 239 419 L 239 420 L 238 421 L 238 422 L 237 423 L 237 424 L 236 425 L 236 426 L 235 427 L 235 428 L 234 429 L 234 430 L 233 431 L 233 432 L 232 433 L 232 434 L 231 435 L 231 436 L 230 437 L 230 439 L 229 440 L 229 441 L 228 442 L 228 443 L 227 444 L 227 446 L 226 447 L 226 448 L 225 449 L 225 450 L 224 451 L 224 453 L 223 454 L 223 455 L 222 456 L 222 458 L 221 459 L 221 461 L 220 462 L 220 464 L 219 465 L 219 466 L 218 467 L 218 469 L 217 470 L 217 472 L 216 473 L 216 475 L 215 476 L 215 478 L 214 479 L 214 481 L 213 482 L 213 484 L 212 485 L 212 487 L 211 488 L 211 491 L 210 492 L 210 494 L 209 495 L 209 498 L 208 499 L 208 502 L 207 503 L 207 506 L 206 507 L 206 510 L 205 511 L 205 514 L 204 515 L 204 519 L 203 520 L 203 523 L 202 524 L 202 528 L 201 529 L 201 534 L 200 535 L 200 539 L 199 540 L 199 546 L 198 547 L 198 552 L 197 553 L 197 560 L 196 561 L 196 569 L 195 570 L 195 579 L 194 580 L 194 600 L 193 601 L 193 624 L 194 625 L 194 645 L 195 646 L 195 656 L 196 657 L 196 665 L 197 666 L 197 673 L 198 674 L 198 680 L 199 681 L 199 686 L 200 687 L 200 691 L 201 692 L 201 696 L 202 697 L 202 702 L 203 703 L 203 706 L 204 707 L 204 711 L 205 712 L 205 715 L 206 716 L 207 715 L 207 714 L 209 712 L 209 711 L 211 709 L 211 708 L 213 706 L 213 705 L 215 703 L 215 702 L 217 700 L 217 699 L 220 696 L 220 695 L 222 693 L 222 692 L 225 689 L 225 688 L 230 683 L 230 682 L 234 678 L 234 677 L 239 672 L 239 671 L 247 663 L 247 662 L 271 638 L 271 624 L 270 623 L 270 599 L 271 598 L 271 581 L 272 580 L 272 571 L 273 570 L 273 563 L 274 562 L 274 556 L 275 555 L 275 551 L 276 550 L 276 546 L 277 545 L 277 541 L 278 540 L 278 536 L 279 535 L 279 532 L 280 531 L 280 528 L 281 527 L 281 524 L 282 523 L 282 520 L 283 519 L 283 517 L 284 516 L 284 513 L 285 512 L 285 510 L 286 509 L 286 506 L 287 505 L 287 503 L 288 502 L 288 500 L 289 499 L 289 497 L 290 496 L 290 494 L 291 493 L 291 492 L 292 491 L 292 489 L 293 488 L 293 487 L 294 486 L 294 484 L 295 483 L 295 481 L 296 480 L 296 479 L 297 478 L 297 477 L 298 476 L 298 474 L 299 473 L 299 472 L 300 471 L 300 470 L 301 469 L 301 467 L 302 466 L 302 465 L 303 464 L 303 463 L 304 462 L 304 461 L 305 460 L 305 459 L 306 458 L 306 457 L 307 456 L 307 455 L 308 454 L 308 453 L 309 452 L 309 451 L 310 450 L 310 449 L 311 448 L 311 447 L 312 446 L 312 445 L 313 444 L 313 443 L 315 441 L 315 440 L 316 439 L 316 438 L 317 437 L 317 436 L 319 434 L 319 433 L 320 432 L 320 431 L 322 429 L 322 428 L 324 426 L 324 425 L 325 424 L 325 423 L 327 421 L 327 420 L 329 418 L 329 417 L 331 415 L 331 414 L 334 411 L 334 410 L 336 408 L 336 407 L 338 405 L 338 404 L 341 401 L 341 400 L 344 397 L 344 396 L 348 392 L 348 391 L 353 386 L 353 385 L 360 378 L 360 377 L 387 350 L 388 350 L 395 343 L 396 343 L 401 338 L 402 338 L 406 334 L 407 334 L 411 330 L 412 330 L 414 328 L 415 328 L 418 325 L 419 325 L 422 322 L 423 322 L 425 320 L 426 320 L 428 318 L 429 318 L 431 316 L 432 316 L 433 315 L 434 315 L 436 313 L 437 313 L 439 311 L 440 311 L 441 310 L 442 310 L 444 308 L 445 308 L 446 307 L 447 307 L 449 305 L 450 305 L 451 304 L 452 304 L 453 303 L 454 303 L 455 302 L 456 302 L 458 300 L 459 300 L 460 299 L 461 299 L 462 298 L 463 298 L 464 297 L 465 297 L 466 296 L 467 296 L 468 295 L 469 295 L 470 294 L 471 294 L 472 293 L 473 293 L 474 292 L 475 292 L 476 291 L 478 291 L 479 290 L 480 290 L 481 289 L 482 289 L 483 288 L 485 288 L 486 287 L 487 287 L 488 286 L 489 286 L 490 285 L 491 285 L 492 284 L 494 284 L 495 283 L 497 283 L 498 282 L 499 282 L 500 281 L 502 281 L 503 280 L 505 280 L 506 279 L 508 279 L 509 278 L 510 278 L 511 277 L 513 277 L 514 276 L 517 276 L 518 275 L 520 275 L 521 274 L 523 274 L 524 273 L 527 273 L 528 272 L 530 272 L 531 271 L 534 271 L 535 270 L 538 270 L 539 269 L 542 269 L 543 268 L 546 268 L 547 267 L 550 267 L 551 266 L 554 266 L 555 265 L 559 265 L 560 264 L 565 264 L 566 263 L 571 263 L 572 262 L 577 262 L 578 261 L 585 261 L 586 260 L 594 260 L 595 259 L 605 259 L 606 258 L 607 258 L 608 259 L 609 258 L 654 258 L 655 259 L 666 259 L 667 260 L 674 260 L 675 261 L 682 261 L 683 262 L 688 262 L 689 263 L 693 263 L 694 264 L 699 264 L 700 265 L 704 265 L 705 266 L 708 266 L 709 267 L 712 267 L 713 268 L 717 268 L 718 269 L 720 269 L 721 270 L 724 270 L 725 271 L 728 271 L 729 272 L 731 272 L 732 273 L 735 273 L 736 274 L 738 274 L 739 275 L 741 275 L 742 276 L 744 276 L 745 277 L 747 277 L 748 278 L 750 278 L 751 279 L 753 279 L 754 280 L 755 280 L 756 281 L 758 281 L 759 282 L 761 282 L 762 283 L 763 283 L 764 284 L 766 284 L 767 285 L 768 285 L 769 286 L 770 286 L 771 287 L 773 287 L 774 288 L 775 288 L 776 289 L 777 289 L 778 290 L 779 290 L 780 291 L 781 291 L 782 292 L 784 292 L 785 293 L 786 293 L 787 294 L 788 294 L 789 295 L 790 295 L 791 296 L 792 296 L 793 297 L 794 297 L 795 298 L 796 298 L 798 300 L 799 300 L 800 301 L 801 301 L 802 302 L 803 302 L 804 303 L 805 303 L 807 305 L 808 305 L 809 306 L 810 306 L 812 308 L 813 308 L 814 309 L 815 309 L 817 311 L 818 311 L 819 312 L 820 312 L 822 314 L 823 314 L 824 315 L 825 315 L 828 318 L 829 318 L 831 320 L 832 320 L 834 322 L 835 322 L 838 325 L 839 325 L 841 327 L 842 327 L 846 331 L 847 331 L 850 334 L 851 334 L 855 338 L 856 338 L 862 344 L 863 344 L 871 352 L 872 352 L 891 371 L 891 372 L 899 380 L 899 381 L 904 386 L 904 387 L 908 391 L 908 392 L 912 396 L 912 397 L 915 400 L 915 401 L 918 404 L 918 405 L 921 408 L 921 409 L 923 411 L 923 412 L 925 414 L 925 415 L 927 417 L 927 418 L 929 420 L 929 421 L 931 423 L 931 424 L 933 426 L 933 427 L 934 428 L 934 429 L 936 431 L 936 432 L 937 433 L 937 434 L 939 436 L 939 437 L 940 438 L 940 439 L 941 440 L 941 441 L 942 442 L 942 443 L 944 445 L 944 446 L 945 447 L 945 448 L 946 449 L 946 450 L 947 451 L 947 452 L 948 453 L 948 454 L 949 455 L 949 456 L 950 457 L 950 458 L 951 459 L 951 460 L 952 461 L 952 462 L 953 463 L 953 465 L 954 466 L 954 467 L 955 468 L 955 469 L 956 470 L 956 471 L 957 472 L 957 474 L 958 475 L 958 476 L 959 477 L 959 479 L 960 480 L 960 481 L 961 482 L 961 483 L 962 484 L 962 486 L 963 487 L 963 489 L 964 490 L 964 491 L 965 492 L 965 494 L 966 495 L 966 497 L 967 498 L 967 500 L 968 501 L 968 503 L 969 504 L 969 506 L 970 507 L 970 509 L 971 510 L 971 513 L 972 514 L 972 516 L 973 517 L 973 520 L 974 521 L 974 524 L 975 525 L 975 528 L 976 529 L 976 531 L 977 532 L 977 536 L 978 537 L 978 541 L 979 542 L 979 545 L 980 546 L 980 551 L 981 552 L 981 557 L 982 558 L 982 563 L 983 564 L 983 571 L 984 572 L 984 581 L 985 582 L 985 594 L 986 595 L 986 633 L 985 634 L 985 647 L 984 648 L 984 655 L 983 656 L 983 663 L 982 664 L 982 670 L 981 671 L 981 676 L 980 677 L 980 681 L 979 682 L 979 687 L 978 688 L 978 691 L 977 692 L 977 696 L 976 697 L 976 700 L 975 701 L 975 704 L 974 705 L 974 708 L 973 709 L 973 712 L 972 713 L 972 715 L 971 716 L 971 718 L 970 719 L 970 722 L 969 723 L 969 725 L 968 726 L 968 728 L 967 729 L 967 731 L 966 732 L 966 734 L 965 735 L 965 736 L 964 737 L 964 739 L 963 740 L 963 742 L 962 743 L 962 745 L 961 746 L 961 747 L 960 748 L 960 750 L 959 751 L 959 752 L 958 753 L 958 755 L 957 756 L 957 757 L 956 758 L 956 760 L 955 761 L 955 762 L 954 763 L 954 764 L 953 765 L 953 766 L 952 767 L 952 768 L 951 769 L 951 770 L 950 771 L 950 773 L 949 774 L 949 775 L 948 776 L 948 777 L 947 778 L 947 779 L 946 780 L 946 781 L 945 782 L 945 783 L 944 784 L 944 785 L 942 787 L 942 788 L 941 789 L 941 790 L 940 791 L 940 792 L 939 793 L 939 794 L 937 796 L 937 797 L 936 798 L 936 799 L 934 801 L 934 802 L 933 803 L 933 804 L 931 806 L 931 807 L 930 808 L 930 809 L 927 812 L 927 813 L 925 815 L 925 816 L 923 818 L 923 819 L 921 821 L 921 822 L 918 825 L 918 826 L 916 828 L 916 829 L 912 833 L 912 834 L 908 838 L 908 839 L 902 845 L 902 846 L 894 854 L 894 855 L 879 870 L 878 870 L 869 879 L 868 879 L 862 885 L 861 885 L 857 889 L 856 889 L 853 892 L 852 892 L 849 895 L 848 895 L 845 898 L 844 898 L 842 900 L 841 900 L 839 902 L 838 902 L 835 905 L 834 905 L 832 907 L 831 907 L 829 909 L 828 909 L 827 910 L 826 910 L 824 912 L 823 912 L 821 914 L 820 914 L 819 915 L 818 915 L 816 917 L 815 917 L 814 918 L 813 918 L 812 919 L 811 919 L 809 921 L 808 921 L 807 922 L 806 922 L 805 923 L 804 923 L 803 924 L 802 924 L 801 925 L 800 925 L 799 926 L 798 926 L 797 927 L 796 927 L 794 929 L 792 929 L 791 930 L 790 930 L 789 931 L 788 931 L 787 932 L 786 932 L 785 933 L 784 933 L 783 934 L 782 934 L 781 935 L 780 935 L 779 936 L 777 936 L 776 937 L 775 937 L 774 938 L 773 938 L 772 939 L 771 939 L 770 940 L 768 940 L 767 941 L 766 941 L 765 942 L 763 942 L 762 943 L 761 943 L 760 944 L 758 944 L 757 945 L 755 945 L 754 946 L 752 946 L 751 947 L 749 947 L 748 948 L 747 948 L 746 949 L 744 949 L 743 950 L 741 950 L 740 951 L 737 951 L 736 952 L 734 952 L 733 953 L 730 953 L 729 954 L 727 954 L 726 955 L 723 955 L 722 956 L 719 956 L 718 957 L 714 957 L 713 958 L 710 958 L 709 959 L 705 959 L 704 960 L 700 960 L 699 961 L 694 961 L 693 962 L 689 962 L 688 963 L 682 963 L 681 964 L 674 964 L 673 965 L 663 965 L 662 966 L 608 966 L 607 965 L 597 965 L 596 964 L 588 964 L 587 963 L 581 963 L 580 962 L 576 962 L 575 961 L 570 961 L 569 960 L 565 960 L 564 959 L 561 959 L 560 958 L 556 958 L 555 957 L 552 957 L 551 956 L 548 956 L 547 955 L 544 955 L 543 954 L 541 954 L 540 953 L 537 953 L 536 952 L 533 952 L 532 951 L 530 951 L 529 950 L 527 950 L 526 949 L 524 949 L 523 948 L 521 948 L 520 947 L 518 947 L 517 946 L 515 946 L 514 945 L 512 945 L 511 944 L 510 944 L 509 943 L 507 943 L 506 942 L 504 942 L 503 941 L 502 941 L 501 940 L 499 940 L 498 939 L 496 939 L 495 938 L 494 938 L 493 937 L 492 937 L 491 936 L 490 936 L 489 935 L 487 935 L 486 934 L 485 934 L 484 933 L 483 933 L 482 932 L 481 932 L 480 931 L 479 931 L 478 930 L 477 930 L 476 929 L 475 929 L 474 928 L 473 928 L 472 927 L 470 927 L 469 926 L 468 926 L 467 925 L 466 925 L 464 923 L 463 923 L 462 922 L 461 922 L 460 921 L 459 921 L 458 920 L 457 920 L 455 918 L 454 918 L 453 917 L 452 917 L 451 916 L 450 916 L 448 914 L 447 914 L 446 913 L 445 913 L 443 911 L 442 911 L 440 909 L 439 909 L 437 907 L 436 907 L 435 906 L 434 906 L 432 904 L 431 904 L 429 902 L 428 902 L 425 899 L 424 899 L 422 897 L 421 897 L 418 894 L 417 894 L 414 891 L 413 891 L 410 888 L 409 888 L 406 885 L 405 885 L 400 880 L 399 880 L 394 875 L 393 875 L 384 866 L 383 866 L 361 844 L 361 843 L 356 838 L 353 838 L 352 839 L 350 839 L 349 840 L 346 840 L 345 841 L 343 841 L 342 842 L 340 842 L 339 843 L 336 843 L 335 844 L 332 844 L 331 845 L 328 845 L 327 846 L 324 846 L 323 847 L 320 847 L 319 848 L 315 848 L 314 849 L 310 849 L 309 850 L 305 850 L 304 851 L 299 851 L 298 852 L 290 852 L 289 853 L 278 853 L 277 854 L 267 854 L 267 855 L 270 858 L 270 859 L 273 862 L 273 863 L 277 867 L 277 868 L 280 871 L 280 872 L 284 876 L 284 877 L 289 882 L 289 883 L 295 889 L 295 890 L 302 897 L 302 898 L 314 910 L 314 911 L 315 911 L 332 928 L 333 928 L 339 934 L 340 934 L 345 939 L 346 939 L 351 944 L 352 944 L 356 948 L 357 948 L 360 951 L 361 951 L 364 954 L 365 954 L 368 957 L 369 957 L 372 960 L 373 960 L 375 962 L 376 962 L 379 965 L 380 965 L 382 967 L 383 967 L 385 969 L 386 969 L 388 971 L 389 971 L 391 973 L 392 973 L 394 975 L 395 975 L 396 976 L 397 976 L 399 978 L 400 978 L 402 980 L 403 980 L 404 981 L 405 981 L 407 983 L 408 983 L 409 984 L 410 984 L 411 985 L 412 985 L 414 987 L 415 987 L 416 988 L 417 988 L 418 989 L 419 989 L 421 991 L 422 991 L 423 992 L 424 992 L 425 993 L 426 993 L 427 994 L 428 994 L 429 995 L 430 995 L 431 996 L 432 996 L 433 997 L 434 997 L 435 998 L 436 998 L 437 999 L 438 999 L 439 1000 L 440 1000 L 441 1001 L 442 1001 L 443 1002 L 444 1002 L 445 1003 L 446 1003 L 447 1004 L 448 1004 L 449 1005 L 451 1005 L 452 1006 L 453 1006 L 454 1007 L 455 1007 L 456 1008 L 457 1008 L 458 1009 L 460 1009 L 461 1010 L 462 1010 L 463 1011 L 465 1011 L 466 1012 L 467 1012 L 468 1013 L 470 1013 L 471 1014 L 472 1014 L 473 1015 L 475 1015 L 476 1016 L 477 1016 L 478 1017 L 480 1017 L 481 1018 L 482 1018 L 483 1019 L 485 1019 L 486 1020 L 488 1020 L 489 1021 L 491 1021 L 492 1022 L 494 1022 L 495 1023 L 497 1023 L 498 1024 L 500 1024 L 501 1025 L 504 1025 L 505 1026 L 507 1026 L 508 1027 L 510 1027 L 511 1028 L 514 1028 L 515 1029 L 518 1029 L 519 1030 L 522 1030 L 523 1031 L 526 1031 L 527 1032 L 530 1032 L 531 1033 L 534 1033 L 535 1034 L 539 1034 L 540 1035 L 543 1035 L 544 1036 L 548 1036 L 549 1037 L 554 1037 L 555 1038 L 559 1038 L 560 1039 L 566 1039 L 567 1040 L 573 1040 L 574 1041 L 581 1041 L 582 1042 L 591 1042 L 592 1043 L 605 1043 L 606 1044 L 651 1044 L 652 1043 L 666 1043 L 667 1042 L 676 1042 L 677 1041 L 684 1041 L 685 1040 L 692 1040 L 693 1039 L 698 1039 L 699 1038 L 704 1038 L 705 1037 L 710 1037 L 711 1036 L 715 1036 L 716 1035 L 720 1035 L 721 1034 L 725 1034 L 726 1033 L 729 1033 L 730 1032 L 733 1032 L 734 1031 L 737 1031 L 738 1030 L 741 1030 L 742 1029 L 744 1029 L 745 1028 L 748 1028 L 749 1027 L 752 1027 L 753 1026 L 755 1026 L 756 1025 L 758 1025 L 759 1024 L 762 1024 L 763 1023 L 764 1023 L 765 1022 L 767 1022 L 768 1021 L 770 1021 L 771 1020 L 773 1020 L 774 1019 L 776 1019 L 777 1018 L 779 1018 L 780 1017 L 782 1017 L 783 1016 L 784 1016 L 785 1015 L 787 1015 L 788 1014 L 790 1014 L 791 1013 L 792 1013 L 793 1012 L 795 1012 L 796 1011 L 797 1011 L 798 1010 L 799 1010 L 800 1009 L 802 1009 L 803 1008 L 804 1008 L 805 1007 L 807 1007 L 808 1006 L 809 1006 L 810 1005 L 811 1005 L 812 1004 L 813 1004 L 814 1003 L 815 1003 L 816 1002 L 817 1002 L 818 1001 L 819 1001 L 820 1000 L 821 1000 L 822 999 L 824 999 L 826 997 L 827 997 L 828 996 L 829 996 L 830 995 L 831 995 L 832 994 L 833 994 L 834 993 L 835 993 L 836 992 L 837 992 L 838 991 L 839 991 L 840 990 L 841 990 L 843 988 L 844 988 L 845 987 L 846 987 L 847 986 L 848 986 L 850 984 L 851 984 L 852 983 L 853 983 L 855 981 L 856 981 L 857 980 L 858 980 L 860 978 L 861 978 L 862 977 L 863 977 L 865 975 L 866 975 L 868 973 L 869 973 L 871 971 L 872 971 L 874 969 L 875 969 L 877 967 L 878 967 L 880 965 L 881 965 L 883 963 L 884 963 L 887 960 L 888 960 L 890 958 L 891 958 L 894 955 L 895 955 L 898 952 L 899 952 L 903 948 L 904 948 L 908 944 L 909 944 L 913 940 L 914 940 L 920 934 L 921 934 L 928 927 L 929 927 L 956 900 L 956 899 L 964 891 L 964 890 L 970 884 L 970 883 L 974 879 L 974 878 L 978 874 L 978 873 L 981 870 L 981 869 L 984 866 L 984 865 L 987 862 L 987 861 L 989 859 L 989 858 L 991 856 L 991 855 L 993 853 L 993 852 L 995 850 L 995 849 L 997 847 L 997 846 L 999 844 L 999 843 L 1000 842 L 1000 841 L 1002 839 L 1002 838 L 1003 837 L 1003 836 L 1005 834 L 1005 833 L 1006 832 L 1006 831 L 1008 829 L 1008 828 L 1009 827 L 1009 826 L 1010 825 L 1010 824 L 1012 822 L 1012 821 L 1013 820 L 1013 819 L 1014 818 L 1014 817 L 1015 816 L 1015 815 L 1017 813 L 1017 812 L 1018 811 L 1018 810 L 1019 809 L 1019 807 L 1020 806 L 1020 805 L 1021 804 L 1021 803 L 1022 802 L 1022 801 L 1023 800 L 1023 799 L 1024 798 L 1024 797 L 1025 796 L 1025 795 L 1026 794 L 1026 793 L 1027 792 L 1027 790 L 1028 789 L 1028 788 L 1029 787 L 1029 786 L 1030 785 L 1030 783 L 1031 782 L 1031 781 L 1032 780 L 1032 779 L 1033 778 L 1033 776 L 1034 775 L 1034 774 L 1035 773 L 1035 771 L 1036 770 L 1036 769 L 1037 768 L 1037 766 L 1038 765 L 1038 763 L 1039 762 L 1039 761 L 1040 760 L 1040 758 L 1041 757 L 1041 755 L 1042 754 L 1042 752 L 1043 751 L 1043 748 L 1044 747 L 1044 745 L 1045 744 L 1045 742 L 1046 741 L 1046 739 L 1047 738 L 1047 736 L 1048 735 L 1048 732 L 1049 731 L 1049 728 L 1050 727 L 1050 724 L 1051 723 L 1051 721 L 1052 720 L 1052 716 L 1053 715 L 1053 712 L 1054 711 L 1054 708 L 1055 707 L 1055 703 L 1056 702 L 1056 698 L 1057 697 L 1057 692 L 1058 691 L 1058 686 L 1059 685 L 1059 680 L 1060 679 L 1060 672 L 1061 671 L 1061 665 L 1062 664 L 1062 654 L 1063 653 L 1063 642 L 1064 641 L 1064 586 L 1063 585 L 1063 574 L 1062 573 L 1062 565 L 1061 564 L 1061 556 L 1060 555 L 1060 548 L 1059 547 L 1059 542 L 1058 541 L 1058 536 L 1057 535 L 1057 531 L 1056 530 L 1056 526 L 1055 525 L 1055 521 L 1054 520 L 1054 517 L 1053 516 L 1053 513 L 1052 512 L 1052 509 L 1051 508 L 1051 504 L 1050 503 L 1050 501 L 1049 500 L 1049 497 L 1048 496 L 1048 493 L 1047 492 L 1047 490 L 1046 489 L 1046 487 L 1045 486 L 1045 483 L 1044 482 L 1044 480 L 1043 479 L 1043 477 L 1042 476 L 1042 474 L 1041 473 L 1041 471 L 1040 470 L 1040 468 L 1039 467 L 1039 466 L 1038 465 L 1038 463 L 1037 462 L 1037 460 L 1036 459 L 1036 457 L 1035 456 L 1035 455 L 1034 454 L 1034 452 L 1033 451 L 1033 450 L 1032 449 L 1032 448 L 1031 447 L 1031 445 L 1030 444 L 1030 443 L 1029 442 L 1029 441 L 1028 440 L 1028 438 L 1027 437 L 1027 436 L 1026 435 L 1026 434 L 1025 433 L 1025 431 L 1024 430 L 1024 429 L 1023 428 L 1023 427 L 1022 426 L 1022 425 L 1021 424 L 1021 423 L 1020 422 L 1020 421 L 1019 420 L 1019 419 L 1018 418 L 1018 417 L 1017 416 L 1017 415 L 1016 414 L 1016 413 L 1015 412 L 1015 411 L 1014 410 L 1014 409 L 1013 408 L 1013 407 L 1012 406 L 1012 405 L 1011 404 L 1011 403 L 1009 401 L 1009 400 L 1008 399 L 1008 398 L 1007 397 L 1007 396 L 1006 395 L 1006 394 L 1004 392 L 1004 391 L 1003 390 L 1003 389 L 1001 387 L 1001 386 L 1000 385 L 1000 384 L 998 382 L 998 381 L 997 380 L 997 379 L 995 377 L 995 376 L 993 374 L 993 373 L 991 371 L 991 370 L 989 368 L 989 367 L 987 365 L 987 364 L 985 362 L 985 361 L 982 358 L 982 357 L 979 354 L 979 353 L 976 350 L 976 349 L 973 346 L 973 345 L 970 342 L 970 341 L 966 337 L 966 336 L 961 331 L 961 330 L 955 324 L 955 323 L 946 314 L 946 313 L 927 294 L 926 294 L 916 284 L 915 284 L 910 279 L 909 279 L 904 274 L 903 274 L 899 270 L 898 270 L 895 267 L 894 267 L 891 264 L 890 264 L 888 262 L 887 262 L 884 259 L 883 259 L 881 257 L 880 257 L 877 254 L 876 254 L 874 252 L 873 252 L 871 250 L 870 250 L 869 249 L 868 249 L 866 247 L 865 247 L 863 245 L 862 245 L 860 243 L 859 243 L 858 242 L 857 242 L 855 240 L 854 240 L 853 239 L 852 239 L 850 237 L 849 237 L 848 236 L 847 236 L 846 235 L 845 235 L 843 233 L 842 233 L 841 232 L 840 232 L 839 231 L 838 231 L 837 230 L 836 230 L 835 229 L 834 229 L 833 228 L 832 228 L 830 226 L 829 226 L 828 225 L 827 225 L 826 224 L 825 224 L 824 223 L 823 223 L 822 222 L 820 222 L 819 221 L 818 221 L 817 220 L 816 220 L 815 219 L 814 219 L 813 218 L 812 218 L 811 217 L 810 217 L 809 216 L 808 216 L 807 215 L 805 215 L 804 214 L 803 214 L 802 213 L 801 213 L 800 212 L 798 212 L 797 211 L 796 211 L 795 210 L 793 210 L 792 209 L 791 209 L 790 208 L 788 208 L 787 207 L 786 207 L 785 206 L 783 206 L 782 205 L 780 205 L 779 204 L 778 204 L 777 203 L 775 203 L 774 202 L 772 202 L 771 201 L 769 201 L 768 200 L 766 200 L 765 199 L 763 199 L 762 198 L 760 198 L 759 197 L 756 197 L 755 196 L 753 196 L 752 195 L 750 195 L 749 194 L 746 194 L 745 193 L 742 193 L 741 192 L 738 192 L 737 191 L 734 191 L 733 190 L 730 190 L 729 189 L 726 189 L 725 188 L 721 188 L 720 187 L 717 187 L 716 186 L 712 186 L 711 185 L 707 185 L 706 184 L 701 184 L 700 183 L 695 183 L 694 182 L 688 182 L 687 181 L 679 181 L 678 180 L 670 180 L 669 179 L 657 179 L 656 178 Z" />
    <path d="M 755 484 L 752 487 L 752 488 L 750 490 L 750 491 L 747 494 L 747 495 L 745 497 L 745 498 L 742 501 L 742 502 L 739 505 L 739 506 L 736 509 L 736 510 L 733 513 L 733 514 L 729 518 L 729 519 L 724 524 L 724 525 L 719 530 L 719 531 L 712 538 L 712 539 L 702 549 L 702 550 L 657 595 L 656 595 L 646 605 L 645 605 L 637 613 L 636 613 L 629 620 L 628 620 L 624 624 L 623 624 L 618 629 L 617 629 L 612 634 L 611 634 L 608 637 L 607 637 L 603 641 L 602 641 L 598 645 L 597 645 L 594 648 L 593 648 L 590 651 L 589 651 L 587 653 L 586 653 L 583 656 L 582 656 L 579 659 L 578 659 L 576 661 L 575 661 L 572 664 L 571 664 L 569 666 L 568 666 L 566 668 L 565 668 L 562 671 L 561 671 L 559 673 L 558 673 L 556 675 L 555 675 L 553 677 L 552 677 L 550 679 L 549 679 L 547 681 L 546 681 L 544 683 L 543 683 L 541 685 L 540 685 L 538 687 L 537 687 L 536 688 L 535 688 L 533 690 L 532 690 L 530 692 L 529 692 L 527 694 L 526 694 L 525 695 L 524 695 L 522 697 L 521 697 L 519 699 L 518 699 L 517 700 L 516 700 L 515 701 L 514 701 L 512 703 L 511 703 L 510 704 L 509 704 L 507 706 L 506 706 L 505 707 L 504 707 L 502 709 L 501 709 L 500 710 L 499 710 L 498 711 L 497 711 L 496 712 L 495 712 L 493 714 L 492 714 L 491 715 L 490 715 L 489 716 L 488 716 L 487 717 L 486 717 L 485 718 L 484 718 L 482 720 L 481 720 L 480 721 L 479 721 L 478 722 L 477 722 L 476 723 L 475 723 L 474 724 L 473 724 L 472 725 L 471 725 L 470 726 L 469 726 L 468 727 L 467 727 L 466 728 L 465 728 L 464 729 L 463 729 L 462 730 L 461 730 L 460 731 L 459 731 L 458 732 L 457 732 L 456 733 L 455 733 L 454 734 L 453 734 L 452 735 L 451 735 L 450 736 L 449 736 L 448 737 L 447 737 L 446 738 L 445 738 L 444 739 L 443 739 L 442 740 L 441 740 L 440 741 L 438 741 L 437 742 L 436 742 L 435 743 L 434 743 L 433 744 L 431 744 L 430 745 L 429 745 L 428 746 L 427 746 L 426 747 L 424 747 L 423 748 L 422 748 L 421 749 L 419 749 L 418 750 L 417 750 L 416 751 L 415 751 L 414 752 L 412 752 L 411 753 L 410 753 L 409 754 L 407 754 L 406 755 L 404 755 L 403 756 L 402 756 L 401 757 L 399 757 L 398 758 L 396 758 L 395 759 L 393 759 L 392 760 L 390 760 L 389 761 L 388 761 L 387 762 L 385 762 L 384 763 L 382 763 L 381 764 L 379 764 L 378 765 L 376 765 L 375 766 L 373 766 L 372 767 L 369 767 L 368 768 L 366 768 L 365 769 L 363 769 L 362 770 L 359 770 L 358 771 L 356 771 L 355 772 L 352 772 L 351 773 L 348 773 L 347 774 L 344 774 L 343 775 L 339 775 L 338 776 L 335 776 L 334 777 L 330 777 L 329 778 L 325 778 L 324 779 L 319 779 L 318 780 L 310 780 L 309 781 L 298 781 L 297 782 L 287 782 L 286 781 L 277 781 L 276 780 L 271 780 L 270 779 L 267 779 L 266 778 L 265 778 L 264 777 L 262 777 L 261 776 L 260 776 L 259 775 L 258 775 L 257 774 L 256 774 L 253 771 L 252 771 L 249 768 L 249 767 L 247 765 L 247 764 L 246 763 L 246 762 L 245 761 L 245 760 L 244 759 L 244 756 L 243 755 L 243 746 L 244 745 L 244 742 L 245 741 L 245 739 L 246 738 L 246 736 L 247 735 L 247 733 L 248 732 L 248 731 L 249 730 L 249 729 L 250 728 L 250 727 L 251 726 L 251 725 L 252 724 L 252 723 L 253 722 L 253 721 L 254 720 L 254 719 L 256 717 L 256 716 L 257 715 L 257 714 L 259 712 L 259 711 L 261 709 L 261 708 L 263 706 L 263 705 L 265 703 L 265 702 L 267 700 L 267 699 L 270 696 L 270 695 L 273 692 L 273 691 L 276 688 L 276 687 L 280 683 L 280 682 L 282 680 L 282 679 L 284 677 L 284 676 L 285 675 L 285 674 L 286 673 L 286 672 L 288 670 L 288 668 L 287 668 L 286 669 L 285 669 L 284 670 L 283 670 L 281 672 L 280 672 L 277 675 L 276 675 L 268 683 L 267 683 L 260 690 L 260 691 L 248 703 L 248 704 L 242 710 L 242 711 L 238 715 L 238 716 L 234 720 L 234 721 L 231 724 L 231 725 L 228 728 L 228 729 L 226 731 L 226 732 L 224 734 L 224 735 L 222 737 L 222 738 L 221 739 L 221 740 L 219 742 L 219 743 L 218 744 L 218 745 L 217 746 L 217 747 L 216 748 L 216 749 L 215 750 L 215 751 L 214 752 L 214 753 L 213 754 L 213 756 L 212 757 L 212 758 L 211 759 L 211 762 L 210 763 L 210 765 L 209 766 L 209 770 L 208 771 L 208 787 L 209 788 L 209 791 L 210 792 L 210 793 L 211 794 L 211 795 L 212 796 L 212 797 L 213 798 L 213 799 L 221 807 L 222 807 L 224 809 L 225 809 L 227 811 L 228 811 L 229 812 L 231 812 L 232 813 L 233 813 L 234 814 L 236 814 L 237 815 L 239 815 L 240 816 L 244 816 L 245 817 L 248 817 L 249 818 L 258 818 L 259 819 L 282 819 L 283 818 L 293 818 L 294 817 L 299 817 L 300 816 L 306 816 L 307 815 L 311 815 L 312 814 L 316 814 L 317 813 L 321 813 L 322 812 L 325 812 L 326 811 L 329 811 L 330 810 L 333 810 L 334 809 L 338 809 L 339 808 L 342 808 L 343 807 L 345 807 L 346 806 L 349 806 L 350 805 L 352 805 L 353 804 L 355 804 L 356 803 L 359 803 L 360 802 L 362 802 L 363 801 L 365 801 L 366 800 L 368 800 L 369 799 L 371 799 L 372 798 L 374 798 L 375 797 L 377 797 L 378 796 L 380 796 L 381 795 L 383 795 L 384 794 L 385 794 L 386 793 L 388 793 L 389 792 L 391 792 L 392 791 L 393 791 L 394 790 L 396 790 L 397 789 L 398 789 L 399 788 L 401 788 L 402 787 L 404 787 L 405 786 L 406 786 L 407 785 L 409 785 L 410 784 L 411 784 L 412 783 L 413 783 L 414 782 L 415 782 L 416 781 L 418 781 L 419 780 L 420 780 L 421 779 L 423 779 L 424 778 L 425 778 L 426 777 L 427 777 L 428 776 L 429 776 L 430 775 L 431 775 L 432 774 L 434 774 L 435 773 L 436 773 L 437 772 L 438 772 L 439 771 L 440 771 L 441 770 L 442 770 L 443 769 L 444 769 L 445 768 L 447 768 L 448 767 L 449 767 L 450 766 L 451 766 L 452 765 L 453 765 L 454 764 L 455 764 L 456 763 L 457 763 L 458 762 L 459 762 L 460 761 L 461 761 L 462 760 L 463 760 L 464 759 L 465 759 L 466 758 L 467 758 L 468 757 L 469 757 L 470 756 L 471 756 L 473 754 L 474 754 L 475 753 L 476 753 L 477 752 L 478 752 L 479 751 L 480 751 L 481 750 L 482 750 L 483 749 L 484 749 L 486 747 L 487 747 L 488 746 L 489 746 L 490 745 L 491 745 L 492 744 L 493 744 L 495 742 L 496 742 L 497 741 L 498 741 L 499 740 L 500 740 L 501 739 L 502 739 L 504 737 L 505 737 L 506 736 L 507 736 L 508 735 L 509 735 L 511 733 L 512 733 L 513 732 L 514 732 L 516 730 L 517 730 L 518 729 L 519 729 L 521 727 L 522 727 L 523 726 L 524 726 L 526 724 L 527 724 L 528 723 L 529 723 L 531 721 L 532 721 L 533 720 L 534 720 L 536 718 L 537 718 L 539 716 L 540 716 L 541 715 L 542 715 L 544 713 L 545 713 L 547 711 L 548 711 L 550 709 L 551 709 L 553 707 L 554 707 L 555 706 L 556 706 L 558 704 L 559 704 L 561 702 L 562 702 L 565 699 L 566 699 L 568 697 L 569 697 L 571 695 L 572 695 L 574 693 L 575 693 L 578 690 L 579 690 L 581 688 L 582 688 L 584 686 L 585 686 L 588 683 L 589 683 L 591 681 L 592 681 L 595 678 L 596 678 L 599 675 L 600 675 L 604 671 L 605 671 L 608 668 L 609 668 L 613 664 L 614 664 L 618 660 L 619 660 L 622 657 L 623 657 L 628 652 L 629 652 L 635 646 L 636 646 L 641 641 L 642 641 L 649 634 L 650 634 L 657 627 L 658 627 L 668 617 L 669 617 L 704 582 L 704 581 L 715 570 L 715 569 L 721 563 L 721 562 L 727 556 L 727 555 L 730 552 L 730 551 L 734 547 L 734 546 L 737 543 L 737 542 L 740 539 L 740 538 L 742 536 L 742 535 L 745 532 L 745 531 L 747 529 L 747 528 L 750 525 L 750 524 L 752 522 L 752 521 L 754 519 L 754 518 L 756 516 L 756 515 L 758 513 L 758 512 L 759 511 L 759 510 L 761 508 L 761 507 L 762 506 L 762 505 L 763 504 L 763 503 L 764 502 L 764 501 L 765 500 L 765 499 L 767 497 L 767 495 L 768 494 L 768 493 L 767 492 L 767 491 L 764 488 L 763 488 L 762 487 L 761 487 L 760 486 L 759 486 L 758 485 L 756 485 Z" />
    <path d="M 603 323 L 602 324 L 599 324 L 598 325 L 597 325 L 596 326 L 594 326 L 593 327 L 592 327 L 591 328 L 589 328 L 588 329 L 587 329 L 586 330 L 585 330 L 584 331 L 583 331 L 582 332 L 581 332 L 580 333 L 579 333 L 577 335 L 576 335 L 575 336 L 574 336 L 572 338 L 571 338 L 570 339 L 569 339 L 567 341 L 566 341 L 561 346 L 560 346 L 553 353 L 552 353 L 539 366 L 539 367 L 532 374 L 532 375 L 528 379 L 528 380 L 525 383 L 525 384 L 521 388 L 520 388 L 519 389 L 516 389 L 515 390 L 512 390 L 511 391 L 509 391 L 508 392 L 505 392 L 504 393 L 502 393 L 501 394 L 499 394 L 498 395 L 496 395 L 495 396 L 493 396 L 492 397 L 490 397 L 489 398 L 488 398 L 487 399 L 485 399 L 484 400 L 482 400 L 481 401 L 480 401 L 479 402 L 477 402 L 476 403 L 475 403 L 474 404 L 473 404 L 472 405 L 470 405 L 469 406 L 468 406 L 467 407 L 466 407 L 465 408 L 464 408 L 463 409 L 462 409 L 461 410 L 460 410 L 459 411 L 458 411 L 457 412 L 456 412 L 455 413 L 454 413 L 453 414 L 452 414 L 451 415 L 450 415 L 448 417 L 447 417 L 446 418 L 445 418 L 444 419 L 443 419 L 442 420 L 441 420 L 439 422 L 438 422 L 436 424 L 435 424 L 433 426 L 432 426 L 430 428 L 429 428 L 427 430 L 426 430 L 424 432 L 423 432 L 421 434 L 420 434 L 416 438 L 415 438 L 412 441 L 411 441 L 406 446 L 405 446 L 397 454 L 396 454 L 382 468 L 382 469 L 375 476 L 375 477 L 371 481 L 371 482 L 367 486 L 367 487 L 364 490 L 364 491 L 362 493 L 362 494 L 359 497 L 359 498 L 357 500 L 357 501 L 355 503 L 355 504 L 353 506 L 353 507 L 352 508 L 352 509 L 350 511 L 350 512 L 349 513 L 349 514 L 348 515 L 348 516 L 347 517 L 347 518 L 345 520 L 345 521 L 344 522 L 344 523 L 343 524 L 343 525 L 342 526 L 342 527 L 341 528 L 341 529 L 340 530 L 340 531 L 339 532 L 339 533 L 338 534 L 338 536 L 337 537 L 337 538 L 336 539 L 336 541 L 335 542 L 335 543 L 334 544 L 334 546 L 333 547 L 333 549 L 332 550 L 332 552 L 331 553 L 331 555 L 330 556 L 330 558 L 329 559 L 329 561 L 328 562 L 328 565 L 327 566 L 327 569 L 326 570 L 326 573 L 325 574 L 325 577 L 324 578 L 324 582 L 323 583 L 323 589 L 322 590 L 322 601 L 321 602 L 321 631 L 322 632 L 322 644 L 323 645 L 323 653 L 324 654 L 324 656 L 324 626 L 325 625 L 325 616 L 326 615 L 326 609 L 327 608 L 327 604 L 328 603 L 328 599 L 329 598 L 329 595 L 330 594 L 330 591 L 331 590 L 331 587 L 332 586 L 332 583 L 333 582 L 333 580 L 334 579 L 334 577 L 335 576 L 335 574 L 336 573 L 336 571 L 337 570 L 337 568 L 338 567 L 338 565 L 339 564 L 339 563 L 340 562 L 340 560 L 341 559 L 341 558 L 342 557 L 342 556 L 343 555 L 343 553 L 344 552 L 344 551 L 345 550 L 345 549 L 346 548 L 346 547 L 347 546 L 347 545 L 348 544 L 348 543 L 349 542 L 349 541 L 350 540 L 350 539 L 351 538 L 351 537 L 352 536 L 352 535 L 353 534 L 353 533 L 354 532 L 354 531 L 355 530 L 355 529 L 357 527 L 357 526 L 359 524 L 359 523 L 360 522 L 360 521 L 362 519 L 362 518 L 364 516 L 364 515 L 367 512 L 367 511 L 370 508 L 370 507 L 373 504 L 373 503 L 376 500 L 376 499 L 382 493 L 382 492 L 404 470 L 405 470 L 411 464 L 412 464 L 416 460 L 417 460 L 420 457 L 421 457 L 424 454 L 425 454 L 427 452 L 428 452 L 430 450 L 431 450 L 433 448 L 434 448 L 436 446 L 437 446 L 439 444 L 440 444 L 441 443 L 442 443 L 444 441 L 445 441 L 446 440 L 447 440 L 448 439 L 449 439 L 451 437 L 452 437 L 453 436 L 454 436 L 455 435 L 456 435 L 458 433 L 459 433 L 460 432 L 462 432 L 463 431 L 464 431 L 465 430 L 466 430 L 467 429 L 468 429 L 469 428 L 470 428 L 471 427 L 472 427 L 473 426 L 474 426 L 475 425 L 477 425 L 478 424 L 479 424 L 480 423 L 481 423 L 482 422 L 484 422 L 485 421 L 486 421 L 487 420 L 489 420 L 490 419 L 492 419 L 493 418 L 494 418 L 495 417 L 497 417 L 498 416 L 500 416 L 501 415 L 503 415 L 504 414 L 505 415 L 505 416 L 504 417 L 504 418 L 503 419 L 503 420 L 502 421 L 502 422 L 501 423 L 501 424 L 500 425 L 500 426 L 499 427 L 499 428 L 498 429 L 498 430 L 497 431 L 497 432 L 496 433 L 496 435 L 495 436 L 495 437 L 494 438 L 494 439 L 493 440 L 493 442 L 492 443 L 492 444 L 491 445 L 491 447 L 490 448 L 490 449 L 489 450 L 489 452 L 488 453 L 488 455 L 487 456 L 487 457 L 486 458 L 486 460 L 485 461 L 485 463 L 484 464 L 484 466 L 483 467 L 483 469 L 482 470 L 482 472 L 481 473 L 481 475 L 480 476 L 480 479 L 479 480 L 479 482 L 478 483 L 478 486 L 477 487 L 477 489 L 476 490 L 476 493 L 475 494 L 475 497 L 474 498 L 474 501 L 473 502 L 473 505 L 472 506 L 472 509 L 471 510 L 471 514 L 470 515 L 470 519 L 469 520 L 469 523 L 468 524 L 468 529 L 467 530 L 467 534 L 466 535 L 466 540 L 465 541 L 465 546 L 464 547 L 464 553 L 463 554 L 463 562 L 462 563 L 462 570 L 461 571 L 461 581 L 460 582 L 460 593 L 459 594 L 459 618 L 458 619 L 458 640 L 459 641 L 459 666 L 460 667 L 460 681 L 461 682 L 461 690 L 462 691 L 462 700 L 463 701 L 463 704 L 465 704 L 466 703 L 467 703 L 468 702 L 469 702 L 470 701 L 471 701 L 473 699 L 474 699 L 475 698 L 476 698 L 477 697 L 478 697 L 479 696 L 480 696 L 482 694 L 483 694 L 484 693 L 483 692 L 483 682 L 482 681 L 482 668 L 481 667 L 481 639 L 480 638 L 480 611 L 481 610 L 481 593 L 482 592 L 482 581 L 483 580 L 483 570 L 484 569 L 484 561 L 485 560 L 485 554 L 486 553 L 486 547 L 487 546 L 487 540 L 488 539 L 488 534 L 489 533 L 489 528 L 490 527 L 490 523 L 491 522 L 491 518 L 492 517 L 492 513 L 493 512 L 493 509 L 494 508 L 494 504 L 495 503 L 495 500 L 496 499 L 496 496 L 497 495 L 497 491 L 498 490 L 498 487 L 499 486 L 499 483 L 500 482 L 500 480 L 501 479 L 501 476 L 502 475 L 502 473 L 503 472 L 503 470 L 504 469 L 504 466 L 505 465 L 505 463 L 506 462 L 506 460 L 507 459 L 507 457 L 508 456 L 508 455 L 509 454 L 509 452 L 510 451 L 510 449 L 511 448 L 511 446 L 512 445 L 512 444 L 513 443 L 513 441 L 514 440 L 514 438 L 515 437 L 515 436 L 516 435 L 516 433 L 517 432 L 517 431 L 518 430 L 518 429 L 519 428 L 519 426 L 520 425 L 520 424 L 521 423 L 521 422 L 522 421 L 522 420 L 523 419 L 523 417 L 525 415 L 525 413 L 526 412 L 526 411 L 527 410 L 527 409 L 530 406 L 532 406 L 533 405 L 536 405 L 537 404 L 540 404 L 541 403 L 544 403 L 545 402 L 549 402 L 550 401 L 553 401 L 554 400 L 558 400 L 559 399 L 564 399 L 565 398 L 570 398 L 571 397 L 576 397 L 577 396 L 585 396 L 586 395 L 595 395 L 596 394 L 613 394 L 614 393 L 643 393 L 644 394 L 661 394 L 662 395 L 671 395 L 672 396 L 681 396 L 682 397 L 689 397 L 690 398 L 697 398 L 698 399 L 705 399 L 704 398 L 702 398 L 701 397 L 700 397 L 699 396 L 697 396 L 696 395 L 695 395 L 694 394 L 692 394 L 691 393 L 689 393 L 688 392 L 686 392 L 685 391 L 683 391 L 682 390 L 679 390 L 678 389 L 675 389 L 674 388 L 671 388 L 670 387 L 666 387 L 665 386 L 661 386 L 660 385 L 655 385 L 654 384 L 649 384 L 648 383 L 641 383 L 640 382 L 632 382 L 631 381 L 621 381 L 620 380 L 574 380 L 573 381 L 564 381 L 563 382 L 555 382 L 554 383 L 545 383 L 544 382 L 544 381 L 546 379 L 546 378 L 548 376 L 548 375 L 550 373 L 550 372 L 554 368 L 554 367 L 579 342 L 580 342 L 584 338 L 585 338 L 588 335 L 589 335 L 592 332 L 593 332 L 595 330 L 596 330 L 598 328 L 599 328 L 601 326 L 602 326 L 604 324 L 605 324 L 606 323 Z" />
    <path d="M 843 480 L 840 483 L 840 484 L 842 486 L 842 487 L 846 491 L 846 492 L 849 495 L 849 496 L 851 498 L 851 499 L 853 501 L 853 502 L 855 504 L 855 505 L 857 507 L 857 508 L 859 510 L 859 511 L 861 513 L 861 514 L 862 515 L 862 516 L 864 518 L 864 519 L 865 520 L 865 521 L 866 522 L 866 523 L 867 524 L 867 525 L 868 526 L 868 527 L 870 529 L 870 530 L 871 531 L 871 532 L 872 533 L 872 534 L 873 535 L 873 536 L 874 537 L 874 539 L 875 540 L 875 541 L 876 542 L 876 544 L 877 545 L 877 546 L 878 547 L 878 548 L 879 549 L 879 551 L 880 552 L 880 554 L 881 555 L 881 557 L 882 558 L 882 560 L 883 561 L 883 562 L 884 563 L 884 566 L 885 567 L 885 569 L 886 570 L 886 573 L 887 574 L 887 576 L 888 577 L 888 580 L 889 581 L 889 585 L 890 586 L 890 589 L 891 590 L 891 595 L 892 596 L 892 601 L 893 602 L 893 609 L 894 610 L 894 620 L 895 621 L 895 651 L 894 652 L 894 662 L 893 663 L 893 670 L 892 671 L 892 677 L 891 678 L 891 683 L 890 684 L 890 687 L 889 688 L 889 692 L 888 693 L 888 696 L 887 697 L 887 700 L 886 701 L 886 704 L 885 705 L 885 708 L 884 709 L 884 711 L 883 712 L 883 714 L 882 715 L 882 717 L 881 718 L 881 720 L 880 721 L 880 723 L 879 724 L 879 726 L 878 727 L 878 729 L 877 730 L 877 732 L 876 733 L 876 734 L 875 735 L 875 737 L 874 738 L 874 739 L 873 740 L 873 741 L 872 742 L 872 744 L 871 745 L 871 746 L 870 747 L 870 748 L 869 749 L 869 750 L 868 751 L 868 752 L 867 753 L 867 754 L 866 755 L 866 756 L 865 757 L 865 758 L 864 759 L 864 760 L 863 761 L 863 762 L 862 763 L 862 764 L 861 765 L 861 766 L 860 767 L 860 768 L 858 770 L 858 771 L 857 772 L 857 773 L 855 775 L 855 776 L 854 777 L 854 778 L 852 780 L 852 781 L 850 783 L 850 784 L 848 786 L 848 787 L 846 789 L 846 790 L 844 792 L 844 793 L 842 795 L 842 796 L 838 800 L 838 801 L 835 804 L 835 805 L 832 808 L 832 809 L 827 814 L 827 815 L 822 820 L 822 821 L 814 829 L 814 830 L 795 849 L 794 849 L 787 856 L 786 856 L 782 860 L 781 860 L 777 864 L 776 864 L 773 867 L 772 867 L 769 870 L 768 870 L 766 872 L 765 872 L 762 875 L 761 875 L 759 877 L 758 877 L 756 879 L 755 879 L 754 880 L 753 880 L 751 882 L 750 882 L 748 884 L 747 884 L 746 885 L 745 885 L 744 886 L 743 886 L 742 887 L 741 887 L 739 889 L 738 889 L 737 890 L 736 890 L 735 891 L 734 891 L 733 892 L 732 892 L 731 893 L 730 893 L 729 894 L 728 894 L 727 895 L 726 895 L 725 896 L 724 896 L 723 897 L 722 897 L 721 898 L 720 898 L 719 899 L 717 899 L 716 900 L 715 900 L 714 901 L 713 901 L 712 902 L 710 902 L 709 903 L 708 903 L 707 904 L 705 904 L 704 905 L 702 905 L 701 906 L 700 906 L 699 907 L 697 907 L 696 908 L 694 908 L 693 909 L 691 909 L 690 910 L 688 910 L 687 911 L 685 911 L 684 912 L 682 912 L 681 913 L 678 913 L 677 914 L 674 914 L 673 915 L 670 915 L 669 916 L 666 916 L 665 917 L 661 917 L 660 918 L 657 918 L 656 919 L 651 919 L 652 919 L 653 920 L 674 920 L 675 919 L 685 919 L 686 918 L 692 918 L 693 917 L 698 917 L 699 916 L 703 916 L 704 915 L 707 915 L 708 914 L 711 914 L 712 913 L 715 913 L 716 912 L 719 912 L 720 911 L 722 911 L 723 910 L 725 910 L 726 909 L 728 909 L 729 908 L 731 908 L 732 907 L 734 907 L 735 906 L 737 906 L 738 905 L 739 905 L 740 904 L 742 904 L 743 903 L 744 903 L 745 902 L 747 902 L 748 901 L 749 901 L 750 900 L 752 900 L 753 899 L 754 899 L 755 898 L 756 898 L 757 897 L 759 897 L 760 896 L 761 896 L 762 895 L 763 895 L 764 894 L 765 894 L 766 893 L 767 893 L 768 892 L 769 892 L 770 891 L 771 891 L 772 890 L 773 890 L 774 889 L 775 889 L 776 888 L 777 888 L 779 886 L 780 886 L 781 885 L 782 885 L 783 884 L 784 884 L 785 883 L 786 883 L 788 881 L 789 881 L 790 880 L 791 880 L 793 878 L 794 878 L 796 876 L 797 876 L 798 875 L 799 875 L 801 873 L 802 873 L 804 871 L 805 871 L 808 868 L 809 868 L 811 866 L 812 866 L 814 864 L 815 864 L 819 860 L 820 860 L 824 856 L 825 856 L 829 852 L 830 852 L 856 826 L 856 825 L 862 819 L 862 818 L 866 814 L 866 813 L 869 810 L 869 809 L 872 806 L 872 805 L 874 803 L 874 802 L 876 800 L 876 799 L 878 797 L 878 796 L 880 794 L 880 793 L 882 791 L 882 790 L 883 789 L 883 788 L 884 787 L 884 786 L 886 784 L 886 783 L 887 782 L 887 781 L 888 780 L 888 779 L 890 777 L 890 776 L 891 775 L 891 774 L 892 773 L 892 772 L 893 771 L 893 770 L 894 769 L 894 768 L 895 767 L 895 766 L 896 765 L 896 763 L 897 762 L 897 761 L 898 760 L 898 759 L 899 758 L 899 756 L 900 755 L 900 754 L 901 753 L 901 752 L 902 751 L 902 749 L 903 748 L 903 747 L 904 746 L 904 744 L 905 743 L 905 742 L 906 741 L 906 739 L 907 738 L 907 736 L 908 735 L 908 733 L 909 732 L 909 730 L 910 729 L 910 727 L 911 726 L 911 723 L 912 722 L 912 720 L 913 719 L 913 716 L 914 715 L 914 711 L 915 710 L 915 707 L 916 706 L 916 702 L 917 701 L 917 697 L 918 696 L 918 691 L 919 690 L 919 683 L 920 682 L 920 673 L 921 672 L 921 642 L 920 641 L 920 632 L 919 631 L 919 624 L 918 623 L 918 618 L 917 617 L 917 613 L 916 612 L 916 608 L 915 607 L 915 604 L 914 603 L 914 599 L 913 598 L 913 595 L 912 594 L 912 592 L 911 591 L 911 589 L 910 588 L 910 586 L 909 585 L 909 583 L 908 582 L 908 580 L 907 579 L 907 577 L 906 576 L 906 574 L 905 573 L 905 571 L 904 570 L 904 568 L 903 567 L 903 565 L 902 564 L 902 563 L 901 562 L 901 561 L 900 560 L 900 558 L 899 557 L 899 556 L 898 555 L 898 554 L 897 553 L 897 551 L 896 550 L 896 549 L 895 548 L 895 547 L 894 546 L 894 545 L 893 544 L 893 543 L 892 542 L 892 541 L 890 539 L 890 538 L 889 537 L 889 536 L 888 535 L 888 534 L 887 533 L 887 532 L 885 530 L 885 529 L 884 528 L 884 527 L 882 525 L 882 524 L 879 521 L 879 520 L 876 517 L 876 516 L 874 514 L 874 513 L 870 509 L 870 508 L 864 502 L 864 501 L 858 495 L 858 494 L 844 480 Z" />
    <path d="M 782 359 L 781 360 L 777 360 L 776 361 L 773 361 L 772 362 L 770 362 L 769 363 L 767 363 L 766 364 L 765 364 L 764 365 L 763 365 L 761 367 L 760 367 L 759 368 L 758 368 L 755 371 L 754 371 L 746 379 L 746 380 L 743 383 L 743 384 L 741 386 L 741 387 L 740 388 L 740 389 L 739 390 L 739 391 L 738 392 L 738 394 L 737 395 L 737 396 L 736 397 L 736 400 L 735 401 L 735 405 L 734 406 L 734 425 L 735 426 L 735 429 L 736 430 L 736 432 L 737 433 L 737 435 L 738 436 L 738 438 L 739 439 L 739 440 L 740 441 L 740 442 L 742 444 L 742 445 L 743 446 L 743 447 L 746 450 L 746 451 L 753 458 L 754 458 L 756 460 L 757 460 L 759 462 L 760 462 L 762 464 L 763 464 L 764 465 L 765 465 L 766 466 L 768 466 L 769 467 L 770 467 L 771 468 L 773 468 L 774 469 L 777 469 L 778 470 L 799 470 L 800 469 L 803 469 L 804 468 L 807 468 L 808 467 L 809 467 L 810 466 L 812 466 L 813 465 L 814 465 L 815 464 L 816 464 L 817 463 L 818 463 L 820 461 L 821 461 L 824 458 L 825 458 L 832 451 L 832 450 L 835 447 L 835 446 L 837 444 L 837 443 L 838 442 L 838 441 L 839 440 L 839 439 L 840 438 L 840 437 L 841 436 L 841 434 L 842 433 L 842 431 L 843 430 L 843 426 L 844 425 L 844 418 L 845 417 L 845 413 L 844 412 L 844 405 L 843 404 L 843 400 L 842 399 L 842 397 L 841 396 L 841 394 L 840 393 L 840 392 L 839 391 L 839 390 L 838 389 L 838 388 L 837 387 L 837 386 L 836 385 L 836 384 L 834 382 L 834 381 L 822 369 L 821 369 L 819 367 L 818 367 L 817 366 L 816 366 L 815 365 L 814 365 L 813 364 L 812 364 L 811 363 L 809 363 L 808 362 L 806 362 L 805 361 L 803 361 L 802 360 L 798 360 L 797 359 Z" />
    <path d="M 498 767 L 497 768 L 496 768 L 495 769 L 494 769 L 493 770 L 492 770 L 491 771 L 490 771 L 489 772 L 488 772 L 487 773 L 486 773 L 485 774 L 484 774 L 482 776 L 481 776 L 481 777 L 482 778 L 482 780 L 483 781 L 483 783 L 484 784 L 484 786 L 485 787 L 485 788 L 486 789 L 486 791 L 487 792 L 487 793 L 488 794 L 488 796 L 489 797 L 489 798 L 490 799 L 490 801 L 491 802 L 491 803 L 492 804 L 492 805 L 493 806 L 493 807 L 494 808 L 494 810 L 495 811 L 495 812 L 496 813 L 496 814 L 497 815 L 497 816 L 498 817 L 498 818 L 500 820 L 500 821 L 501 822 L 501 823 L 502 824 L 502 825 L 503 826 L 503 827 L 504 828 L 504 829 L 505 830 L 505 831 L 507 833 L 507 834 L 508 835 L 508 836 L 510 838 L 510 839 L 511 840 L 511 841 L 513 843 L 513 844 L 515 846 L 515 847 L 517 849 L 517 850 L 519 852 L 519 853 L 521 855 L 521 856 L 524 859 L 524 860 L 528 864 L 528 865 L 533 870 L 533 871 L 554 892 L 555 892 L 558 895 L 559 895 L 562 898 L 563 898 L 565 900 L 566 900 L 568 902 L 569 902 L 571 904 L 572 904 L 573 905 L 574 905 L 575 906 L 576 906 L 578 908 L 580 908 L 581 909 L 582 909 L 583 910 L 586 910 L 585 909 L 584 909 L 574 899 L 573 899 L 563 889 L 563 888 L 554 879 L 554 878 L 549 873 L 549 872 L 545 868 L 545 867 L 543 865 L 543 864 L 540 861 L 540 860 L 537 857 L 537 856 L 536 855 L 536 854 L 534 852 L 534 851 L 532 849 L 532 848 L 531 847 L 531 846 L 529 844 L 529 843 L 528 842 L 528 841 L 527 840 L 527 839 L 526 838 L 526 837 L 525 836 L 525 835 L 524 834 L 524 833 L 522 831 L 522 830 L 521 829 L 521 827 L 520 826 L 520 825 L 519 824 L 519 823 L 518 822 L 518 821 L 517 820 L 517 819 L 516 818 L 516 816 L 515 815 L 515 814 L 514 813 L 514 811 L 513 810 L 513 809 L 512 808 L 512 807 L 511 806 L 511 804 L 510 803 L 510 801 L 509 800 L 509 798 L 508 797 L 508 796 L 507 795 L 507 793 L 506 792 L 506 790 L 505 789 L 505 787 L 504 786 L 504 784 L 503 783 L 503 781 L 502 780 L 502 778 L 501 777 L 501 775 L 500 774 L 500 772 L 499 771 L 499 768 Z" />
  </g>
</svg>